<svg width="67" height="37" viewBox="0 0 67 37" fill="none" xmlns="http://www.w3.org/2000/svg">
<path d="M0 8C0 3.58172 3.58172 0 8 0H58C62.4183 0 66 3.58172 66 8V29C66 33.4183 62.4183 37 58 37H8C3.58172 37 0 33.4183 0 29V8Z" fill="#D9D9D9"/>
<path d="M65.5726 14.8782L59.1339 8.43946C58.9946 8.30014 58.8292 8.18962 58.6472 8.11421C58.4652 8.03881 58.2701 8 58.0731 8C57.8761 8 57.681 8.03881 57.499 8.11421C57.317 8.18962 57.1516 8.30014 57.0123 8.43946L54.346 11.1057L48.9085 13.1457C48.6615 13.2376 48.443 13.3931 48.2751 13.5963C48.1072 13.7996 47.9959 14.0435 47.9523 14.3035L46.0051 25.9848C45.992 26.0631 46.0042 26.1435 46.0398 26.2145C46.0754 26.2855 46.1326 26.3434 46.2032 26.3797C46.2738 26.4161 46.3541 26.4292 46.4325 26.417C46.511 26.4048 46.5836 26.368 46.6398 26.312L51.9835 20.9682C51.8142 20.616 51.7402 20.2255 51.7689 19.8357C51.8037 19.3562 51.9913 18.9005 52.304 18.5353C52.6167 18.1701 53.0382 17.9147 53.5067 17.8065C53.9751 17.6984 54.4659 17.7431 54.9071 17.9341C55.3483 18.1252 55.7167 18.4526 55.9582 18.8682C56.1998 19.2839 56.3019 19.766 56.2495 20.244C56.1972 20.7219 55.9931 21.1705 55.6672 21.5239C55.3413 21.8774 54.9108 22.1172 54.4387 22.2082C53.9666 22.2992 53.4778 22.2365 53.0439 22.0295L47.7001 27.3732C47.644 27.4294 47.6073 27.502 47.5951 27.5805C47.5829 27.6589 47.5959 27.7392 47.6323 27.8098C47.6687 27.8804 47.7266 27.9376 47.7975 27.9732C47.8685 28.0088 47.949 28.021 48.0273 28.0079L59.7095 26.0607C59.9691 26.0175 60.2127 25.9067 60.4159 25.7395C60.6191 25.5723 60.7748 25.3546 60.8673 25.1082L62.9082 19.6641L65.5726 17.0007C65.7119 16.8614 65.8224 16.696 65.8979 16.514C65.9733 16.332 66.0121 16.1369 66.0121 15.9399C66.0121 15.7429 65.9733 15.5478 65.8979 15.3658C65.8224 15.1838 65.7119 15.0184 65.5726 14.8791V14.8782ZM62.2623 18.1895L55.8235 11.7507L58.0735 9.50071L64.5123 15.9395L62.2623 18.1895Z" fill="black"/>
<path d="M4 26.0352C4 28.1696 4.54955 29.7292 5.69901 31.1419C6.70945 32.3836 8.24901 32.182 9.31485 31.1487C10.7688 29.7392 12.0567 27.4498 13.8697 26.9824C14.3962 26.8466 15.3601 26.856 15.8495 27.2569C16.7384 27.9852 17.2761 29.3413 18.3278 29.7142C19.3184 30.0653 20.6247 29.9434 21.295 28.7464C22.0761 27.3517 21.9922 28.1738 22.8343 28.8562C24.301 30.0446 25.4734 28.1549 26.5179 27.051C26.7404 26.8159 27.4986 26.019 27.8152 26.296C28.1824 26.6173 28.185 27.7707 28.58 28.2316C30.2147 30.1394 32.1745 26.0462 32.9461 24.5251C33.5439 23.3466 34.2423 22.233 34.7806 20.9971C34.8893 20.7477 35.0171 20.104 35.2356 20.0087C35.6736 19.8176 36.4151 22.8385 36.5861 23.3171C36.9525 24.3421 37.168 25.5898 37.6994 26.4744C38.2259 27.3508 39.3219 27.3105 40.0471 27.2638C40.7967 27.2155 41.7074 26.552 42.3705 26.1107C43.0618 25.6506 43.8783 25.8727 44.6117 25.9734C45.0648 26.0356 45.4794 26.1498 45.9186 26.3234C46.6539 26.6141 47.2662 26.6846 48 26.7764" stroke="black" stroke-width="2" stroke-linecap="round"/>
</svg>
